<svg xmlns="http://www.w3.org/2000/svg" xmlns:xlink="http://www.w3.org/1999/xlink" width="500" zoomAndPan="magnify" viewBox="0 0 375 374.999991" height="500" preserveAspectRatio="xMidYMid meet" version="1.0"><defs><g/><clipPath id="39f7c2cac9"><rect x="0" width="131" y="0" height="224"/></clipPath><clipPath id="122f960452"><path d="M 19 30 L 358 30 L 358 355 L 19 355 Z M 19 30 " clip-rule="nonzero"/></clipPath><clipPath id="ac85c46124"><path d="M -37.113281 263.371094 L 108.542969 -36.085938 L 412.042969 111.539062 L 266.386719 410.996094 Z M -37.113281 263.371094 " clip-rule="nonzero"/></clipPath><clipPath id="828661ff1d"><path d="M -37.113281 263.371094 L 108.542969 -36.085938 L 412.042969 111.539062 L 266.386719 410.996094 Z M -37.113281 263.371094 " clip-rule="nonzero"/></clipPath><clipPath id="360038d1a4"><path d="M 49 22 L 324 22 L 324 317 L 49 317 Z M 49 22 " clip-rule="nonzero"/></clipPath><clipPath id="de1e5ee0e0"><path d="M -37.113281 263.371094 L 108.542969 -36.085938 L 412.042969 111.539062 L 266.386719 410.996094 Z M -37.113281 263.371094 " clip-rule="nonzero"/></clipPath><clipPath id="28c9147d5e"><path d="M -37.113281 263.371094 L 108.542969 -36.085938 L 412.042969 111.539062 L 266.386719 410.996094 Z M -37.113281 263.371094 " clip-rule="nonzero"/></clipPath><clipPath id="de4d81d8f4"><path d="M 82 39 L 320 39 L 320 287 L 82 287 Z M 82 39 " clip-rule="nonzero"/></clipPath><clipPath id="05bc116658"><path d="M -37.113281 263.371094 L 108.542969 -36.085938 L 412.042969 111.539062 L 266.386719 410.996094 Z M -37.113281 263.371094 " clip-rule="nonzero"/></clipPath><clipPath id="8486ad6bf1"><path d="M -37.113281 263.371094 L 108.542969 -36.085938 L 412.042969 111.539062 L 266.386719 410.996094 Z M -37.113281 263.371094 " clip-rule="nonzero"/></clipPath></defs><g transform="matrix(1, 0, 0, 1, 110, 113)"><g clip-path="url(#39f7c2cac9)"><g fill="#06193a" fill-opacity="1"><g transform="translate(0.954389, 177.074172)"><g><path d="M 54.921875 -102.96875 L 49.5 -75.5 L 108.203125 -75.5 L 103.6875 -52.75 L 44.796875 -52.75 L 39.015625 -23.484375 L 108.015625 -23.484375 L 103.140625 0 L 5.234375 0 L 30.53125 -126.453125 L 126.09375 -126.453125 L 121.203125 -102.96875 Z M 54.921875 -102.96875 "/></g></g></g></g></g><g clip-path="url(#122f960452)"><g clip-path="url(#ac85c46124)"><g clip-path="url(#828661ff1d)"><path fill="#06193a" d="M 338.113281 241.105469 C 299.722656 320.027344 204.625 352.886719 125.703125 314.5 C 46.78125 276.109375 13.921875 181.011719 52.308594 102.089844 C 67.796875 70.25 92.515625 45.910156 121.675781 30.71875 C 85.855469 46.140625 55.1875 73.988281 36.789062 111.808594 C -3.945312 195.554688 30.925781 296.460938 114.664062 337.191406 C 198.410156 377.925781 299.316406 343.058594 340.050781 259.316406 C 358.445312 221.496094 361.421875 180.171875 351.4375 142.472656 C 357.488281 174.792969 353.597656 209.261719 338.113281 241.105469 Z M 338.113281 241.105469 " fill-opacity="1" fill-rule="nonzero"/></g></g></g><g clip-path="url(#360038d1a4)"><g clip-path="url(#de1e5ee0e0)"><g clip-path="url(#28c9147d5e)"><path fill="#0a47a3" d="M 254.402344 296 C 182.148438 320.96875 103.335938 282.632812 78.371094 210.375 C 53.402344 138.121094 91.738281 59.308594 163.992188 34.34375 C 193.144531 24.269531 223.355469 24.503906 250.675781 33.105469 C 219.117188 20.542969 183.074219 18.804688 148.445312 30.769531 C 71.777344 57.257812 31.101562 140.886719 57.59375 217.554688 C 84.085938 294.226562 167.710938 334.902344 244.378906 308.410156 C 279.003906 296.445312 306.289062 272.824219 323.359375 243.457031 C 307.179688 267.089844 283.554688 285.929688 254.402344 296 Z M 254.402344 296 " fill-opacity="1" fill-rule="nonzero"/></g></g></g><g clip-path="url(#de4d81d8f4)"><g clip-path="url(#05bc116658)"><g clip-path="url(#8486ad6bf1)"><path fill="#00b3ff" d="M 165.6875 272.523438 C 107.839844 244.386719 83.757812 174.6875 111.894531 116.84375 C 140.03125 59 209.730469 34.914062 267.574219 63.050781 C 290.910156 74.402344 308.75 92.519531 319.886719 113.890625 C 308.582031 87.636719 288.171875 65.160156 260.449219 51.675781 C 199.074219 21.820312 125.117188 47.375 95.261719 108.753906 C 65.40625 170.128906 90.960938 244.089844 152.335938 273.945312 C 180.058594 287.429688 210.347656 289.605469 237.976562 282.292969 C 214.289062 286.726562 189.019531 283.875 165.6875 272.523438 Z M 165.6875 272.523438 " fill-opacity="1" fill-rule="nonzero"/></g></g></g></svg>